<svg xmlns="http://www.w3.org/2000/svg" viewBox="0 0 483.53 740.65"><defs><style>.cls-1{fill:#fff;}</style></defs><title>epmoc_logo</title><g id="Layer_2" data-name="Layer 2"><g id="Layer_3" data-name="Layer 3"><polygon class="cls-1" points="85.06 403.42 0 452.53 0 22.63 85.06 79.23 85.06 403.42"/><polygon class="cls-1" points="483.53 22.63 483.53 173.36 398.46 222.47 398.46 79.23 483.53 22.63"/><polygon class="cls-1" points="398.46 254.37 483.53 205.26 483.53 602.42 241.76 740.65 0 602.42 0 484.43 85.06 435.3 85.06 557.43 241.76 649.99 398.46 557.43 398.46 254.37"/><polygon class="cls-1" points="308.8 506.69 243.01 549.56 177.2 506.69 177.2 382.11 106.33 423.02 106.33 540.59 241.76 624.55 376.64 540.59 376.64 266.98 308.8 306.14 308.8 506.69"/><path class="cls-1" d="M241.76,0,106.33,83.12v308l64.89-37.46h0l0,0,5.94-3.43h0l131.6-76,67.84-39.16v-152ZM177.2,273.6V121.44l65.93-40.6,65.67,40.6v74.87Z"/></g></g></svg>